<svg id="Bag_2" data-name="Bag 2" xmlns="http://www.w3.org/2000/svg" width="30" height="30" viewBox="0 0 30 30">
  <rect id="Rectangle_50" data-name="Rectangle 50" width="30" height="30" rx="4" fill="#03174c" opacity="0"/>
  <g id="Group_43" data-name="Group 43" transform="translate(4.875 4.312)">
    <g id="Iconly_Two-tone_Bag-2" data-name="Iconly/Two-tone/Bag-2">
      <g id="Bag-2">
        <path id="Stroke-1" d="M13.2,7.656V4.245a4.254,4.254,0,0,0-8.508-.019v3.43" transform="translate(1.172 0)" fill="none" stroke="#e0645f" stroke-linecap="round" stroke-linejoin="round" stroke-width="2.35" fill-rule="evenodd" opacity="0.4"/>
        <path id="Stroke-3" d="M15.46,19.806H4.79A4.788,4.788,0,0,1,0,15.019v-6.2A4.788,4.788,0,0,1,4.789,4.028H15.46a4.788,4.788,0,0,1,4.79,4.787V15.02a4.788,4.788,0,0,1-4.789,4.787Z" transform="translate(0 1.007)" fill="none" stroke="#ef5a5a" stroke-linecap="round" stroke-linejoin="round" stroke-width="2.35" fill-rule="evenodd"/>
      </g>
    </g>
    <path id="Stroke-1-2" data-name="Stroke-1" d="M13.2,6.367a4.254,4.254,0,0,1-8.508.019" transform="translate(1.172 5.615)" fill="none" stroke="#c60800" stroke-linecap="round" stroke-linejoin="round" stroke-width="2" fill-rule="evenodd"/>
  </g>
</svg>
