<svg id="Bag_2" data-name="Bag 2" xmlns="http://www.w3.org/2000/svg" width="56" height="56" viewBox="0 0 56 56">
  <rect id="Rectangle_50" data-name="Rectangle 50" width="56" height="56" rx="4" fill="#03174c" opacity="0"/>
  <g id="Groupe_43" data-name="Groupe 43" transform="translate(9.1 8.05)">
    <g id="Iconly_Two-tone_Bag-2" data-name="Iconly/Two-tone/Bag-2">
      <g id="Bag-2">
        <path id="Stroke-1" d="M20.571,14.291V7.923A7.941,7.941,0,0,0,4.689,7.888v6.4" transform="translate(6.252 0)" fill="none" stroke="#e0645f" stroke-linecap="round" stroke-linejoin="round" stroke-width="4.35" fill-rule="evenodd" opacity="0.4"/>
        <path id="Stroke-3" d="M28.858,33.48H8.942A8.938,8.938,0,0,1,0,24.545V12.963A8.937,8.937,0,0,1,8.94,4.028H28.858A8.938,8.938,0,0,1,37.8,12.963V24.547a8.937,8.937,0,0,1-8.94,8.936Z" transform="translate(0 5.37)" fill="none" stroke="#e0645f" stroke-linecap="round" stroke-linejoin="round" stroke-width="4.35" fill-rule="evenodd"/>
      </g>
    </g>
    <path id="Stroke-1-2" data-name="Stroke-1" d="M20.571,6.367A7.941,7.941,0,0,1,4.689,6.4" transform="translate(6.252 16)" fill="none" stroke="#c60800" stroke-linecap="round" stroke-linejoin="round" stroke-width="4" fill-rule="evenodd"/>
  </g>
</svg>
