<svg xmlns="http://www.w3.org/2000/svg" xmlns:xlink="http://www.w3.org/1999/xlink" width="129.744" height="64.214" viewBox="0 0 129.744 64.214">
  <defs>
    <linearGradient id="linear-gradient" x1="0.5" y1="1.057" x2="0.316" y2="-0.483" gradientUnits="objectBoundingBox">
      <stop offset="0" stop-color="#ef5858"/>
      <stop offset="1" stop-color="#ffbaba"/>
    </linearGradient>
  </defs>
  <path id="Path_67" data-name="Path 67" d="M57.547,60.39c14.062-.39,29.734-1.89,45.131-6.35A55.368,55.368,0,0,0,116.589,48.3a32.874,32.874,0,0,0,5.664-4.328,15.991,15.991,0,0,0,3.175-4.592c1.938-4.109,1.394-8.355-1.566-11.423a28.367,28.367,0,0,0-5.8-4.549A80.3,80.3,0,0,0,99.3,15.445,77.678,77.678,0,0,0,83,12.8a4.7,4.7,0,0,1-1.911-.311,2.087,2.087,0,0,1-1-1.46,2.686,2.686,0,0,1,1.076-1.684,3.215,3.215,0,0,1,1.7-.173c8.915-.106,17.522,2.058,25.9,5.567a105.65,105.65,0,0,1,11.992,6.021,23.345,23.345,0,0,1,5.649,4.8c3.52,4,4.232,9.419,2.238,14.748a18.864,18.864,0,0,1-4.564,6.939,36.376,36.376,0,0,1-11.469,7.272,107.061,107.061,0,0,1-24.44,6.8,197.088,197.088,0,0,1-29.783,2.85c-11.948.231-23.824-.511-35.5-3.871A42.338,42.338,0,0,1,9.615,54.033a25.043,25.043,0,0,1-7.043-7.314,16.887,16.887,0,0,1-1.1-15.891,27.2,27.2,0,0,1,5.233-8.007c5.533-6.139,12.051-10.257,18.955-13.526A97.717,97.717,0,0,1,53.615,1.263a131.139,131.139,0,0,1,36.759.067c10.57,1.424,20.991,3.787,30.991,8.383,1.28.588,2.516,1.323,3.758,2.027a1.988,1.988,0,0,1,1.059,2.514c-.278.935-1.118,1.215-2.232.6-6.3-3.475-13-5.226-19.71-6.944A138.1,138.1,0,0,0,80.415,4.227,116.789,116.789,0,0,0,38.271,8.569,72.684,72.684,0,0,0,16.932,18.6,41.388,41.388,0,0,0,7.48,27.353a26.52,26.52,0,0,0-2.766,4.374c-2.407,4.893-2.061,9.7,1.2,13.762a31.008,31.008,0,0,0,5.6,5.337c4.48,3.354,9.485,5.11,14.6,6.388,9.808,2.451,19.742,3.2,31.441,3.175" transform="translate(0 0.001)" fill="url(#linear-gradient)"/>
</svg>
