<svg xmlns="http://www.w3.org/2000/svg" width="164" height="44.535" viewBox="0 0 164 44.535"><g transform="translate(33.153 -60.312)"><g transform="translate(-33.153 60.312)"><path d="M106.094,1.019a6.362,6.362,0,0,1-6.362,6.362H89.989a3.691,3.691,0,1,1,0-7.381h16.1Z" transform="translate(-72.206 0)" fill="#03174c"/><path d="M58.893,33.787A16.893,16.893,0,1,0,42,16.893,16.893,16.893,0,0,0,58.893,33.787Zm0-7.508a9.385,9.385,0,1,0-9.385-9.385A9.385,9.385,0,0,0,58.893,26.279Z" transform="translate(-42)" fill="#03174c" fill-rule="evenodd"/><circle cx="3.355" cy="3.355" r="3.355" transform="translate(13.421 13.421)" fill="#ef5a5a"/><path d="M71.684,121.49a12.081,12.081,0,0,0,10.7-6.4l-5.123-2.235a6.071,6.071,0,0,1-10.764,0l-5.512,2.235A12.081,12.081,0,0,0,71.684,121.49Z" transform="translate(-54.946 -76.954)" fill="#03174c"/></g><g transform="translate(16.745 68.269)"><path d="M9.334,188.028v2.742h6.924a6.3,6.3,0,0,1-6.343,4.4c-3.988,0-6.675-2.881-6.675-6.98s2.77-6.98,6.675-6.98a6.347,6.347,0,0,1,6.232,4.127h3.268c-.859-4.238-4.819-7.2-9.556-7.2a10.056,10.056,0,0,0,.055,20.108c5.706,0,9.722-4.265,9.805-10.22Z" transform="translate(0 -169.628)" fill="#03174c"/><path d="M50.105,185.816l-.36,1.883a7.469,7.469,0,0,0-5.484-2.244,7.852,7.852,0,1,0,5.429,13.517l.3,1.8H52.46V185.816ZM44.51,198.2a4.9,4.9,0,1,1,4.875-4.9A4.775,4.775,0,0,1,44.51,198.2Z" transform="translate(-14.518 -172.539)" fill="#03174c"/><path d="M70.354,197.476h3.074v-20.3H70.354Z" transform="translate(-28 -169.243)" fill="#03174c"/><path d="M96.186,193.349a7.415,7.415,0,1,0-.36,2.715H92.586a4.5,4.5,0,0,1-4.044,2.215,4.4,4.4,0,0,1-4.57-3.933H96.1A6.054,6.054,0,0,0,96.186,193.349Zm-7.644-5.1a4.448,4.448,0,0,1,4.542,3.6H84.055A4.4,4.4,0,0,1,88.542,188.253Z" transform="translate(-32.185 -172.539)" fill="#03174c"/><path d="M118.909,185.915a5.377,5.377,0,0,0-4.6,2.133l-.5-2.049h-2.077v14.956h3.074v-7.949c0-2.714,1.246-4.183,3.794-4.183h1.634v-2.908Z" transform="translate(-44.469 -172.722)" fill="#03174c"/><path d="M129.842,201.01h3.074V186.054h-3.074Z" transform="translate(-51.676 -172.777)" fill="#03174c"/><path d="M155.674,193.349a7.415,7.415,0,1,0-.36,2.715h-3.241a4.5,4.5,0,0,1-4.044,2.215,4.4,4.4,0,0,1-4.57-3.933h12.132A6.058,6.058,0,0,0,155.674,193.349Zm-7.644-5.1a4.448,4.448,0,0,1,4.542,3.6h-9.03A4.4,4.4,0,0,1,148.03,188.253Z" transform="translate(-55.86 -172.539)" fill="#03174c"/><path d="M175.43,201.16c3.656,0,6.066-1.883,6.066-4.791,0-3.684-3.074-4.182-5.6-4.6-1.8-.3-3.324-.554-3.324-1.883,0-1.081,1.053-1.828,2.742-1.828,1.8,0,2.908.775,2.964,2.188h2.908c-.055-2.881-2.327-4.792-5.789-4.792-3.49,0-5.789,1.856-5.789,4.543,0,3.462,2.936,4.016,5.429,4.459,1.828.3,3.435.609,3.435,2.05,0,1.246-1.274,1.939-2.936,1.939-1.8,0-3.13-.831-3.213-2.41h-2.991C169.419,199.138,171.8,201.16,175.43,201.16Z" transform="translate(-67.394 -172.539)" fill="#03174c"/><path d="M130,174.505A1.505,1.505,0,1,0,131.505,173,1.5,1.5,0,0,0,130,174.505Z" transform="translate(-51.738 -167.582)" fill="#ef5a5a"/><path d="M141.119,171.093v-6.756h-1.778v8.425h6.319v-1.669Z" transform="translate(-55.456 -164.134)" fill="#ef5a5a"/><path d="M152.445,172.762h1.732v-8.425h-1.732Z" transform="translate(-60.671 -164.134)" fill="#ef5a5a"/><path d="M164.461,164.337,162,170.594l-2.528-6.257h-1.825l3.557,8.425h1.576l3.464-8.425Z" transform="translate(-62.74 -164.134)" fill="#ef5a5a"/><path d="M181.5,168.446a4.178,4.178,0,1,0-.2,1.529h-1.826a2.533,2.533,0,0,1-2.278,1.249,2.48,2.48,0,0,1-2.574-2.216h6.834A3.4,3.4,0,0,0,181.5,168.446Zm-4.307-2.87a2.506,2.506,0,0,1,2.559,2.028h-5.086A2.478,2.478,0,0,1,177.193,165.576Z" transform="translate(-68.801 -164)" fill="#ef5a5a"/></g></g></svg>