<svg xmlns="http://www.w3.org/2000/svg" width="120" height="32.587" viewBox="0 0 120 32.587">
  <g id="Group_120" data-name="Group 120" transform="translate(33.153 -60.312)">
    <g id="Group_5" data-name="Group 5" transform="translate(-33.153 60.312)">
      <path id="Path_1" data-name="Path 1" d="M100.783.746A4.655,4.655,0,0,1,96.128,5.4H89A2.7,2.7,0,1,1,89,0h11.784Z" transform="translate(-75.987 0)" fill="#fff"/>
      <path id="Path_2" data-name="Path 2" d="M54.361,24.722A12.361,12.361,0,1,0,42,12.361,12.361,12.361,0,0,0,54.361,24.722Zm0-5.494a6.867,6.867,0,1,0-6.867-6.867A6.867,6.867,0,0,0,54.361,19.228Z" transform="translate(-42)" fill="#fff" fill-rule="evenodd"/>
      <circle id="Ellipse_1" data-name="Ellipse 1" cx="2.455" cy="2.455" r="2.455" transform="translate(9.82 9.82)" fill="#fff"/>
      <path id="Path_3" data-name="Path 3" d="M68.814,119.173a8.84,8.84,0,0,0,7.829-4.683l-3.748-1.635a4.442,4.442,0,0,1-7.876,0l-4.033,1.635A8.84,8.84,0,0,0,68.814,119.173Z" transform="translate(-56.566 -86.586)" fill="#fff"/>
    </g>
    <g id="Group_4" data-name="Group 4" transform="translate(3.357 66.134)">
      <path id="Path_4" data-name="Path 4" d="M6.83,185.375v2.006H11.9A4.608,4.608,0,0,1,7.255,190.6a5.112,5.112,0,0,1,0-10.214,4.644,4.644,0,0,1,4.56,3.02h2.391a6.886,6.886,0,0,0-6.992-5.269,7.358,7.358,0,0,0,.041,14.713c4.175,0,7.114-3.121,7.174-7.478Z" transform="translate(0 -171.911)" fill="#fff"/>
      <path id="Path_5" data-name="Path 5" d="M46.449,185.719l-.263,1.378a5.465,5.465,0,0,0-4.013-1.642,5.746,5.746,0,1,0,3.972,9.891l.223,1.317h1.8V185.719Zm-4.094,9.059a3.587,3.587,0,1,1,3.567-3.587A3.494,3.494,0,0,1,42.355,194.778Z" transform="translate(-20.41 -176.004)" fill="#fff"/>
      <path id="Path_6" data-name="Path 6" d="M70.354,192.029H72.6V177.174h-2.25Z" transform="translate(-39.363 -171.371)" fill="#fff"/>
      <path id="Path_7" data-name="Path 7" d="M92.077,191.231a5.426,5.426,0,1,0-.263,1.986H89.442a3.291,3.291,0,0,1-2.959,1.621,3.221,3.221,0,0,1-3.344-2.878h8.877A4.43,4.43,0,0,0,92.077,191.231ZM86.483,187.5a3.254,3.254,0,0,1,3.324,2.635H83.2A3.22,3.22,0,0,1,86.483,187.5Z" transform="translate(-45.247 -176.004)" fill="#fff"/>
      <path id="Path_8" data-name="Path 8" d="M116.984,185.915a3.935,3.935,0,0,0-3.364,1.561l-.365-1.5h-1.52V196.92h2.25V191.1c0-1.986.912-3.061,2.776-3.061h1.2v-2.128Z" transform="translate(-62.516 -176.262)" fill="#fff"/>
      <path id="Path_9" data-name="Path 9" d="M129.842,197h2.25V186.054h-2.25Z" transform="translate(-72.647 -176.339)" fill="#fff"/>
      <path id="Path_10" data-name="Path 10" d="M151.565,191.231a5.426,5.426,0,1,0-.263,1.986H148.93a3.291,3.291,0,0,1-2.959,1.621,3.221,3.221,0,0,1-3.344-2.878H151.5A4.432,4.432,0,0,0,151.565,191.231Zm-5.593-3.729a3.255,3.255,0,0,1,3.324,2.635h-6.607A3.22,3.22,0,0,1,145.971,187.5Z" transform="translate(-78.53 -176.004)" fill="#fff"/>
      <path id="Path_11" data-name="Path 11" d="M173.795,196.946c2.675,0,4.438-1.378,4.438-3.506,0-2.7-2.25-3.06-4.094-3.365-1.317-.223-2.432-.405-2.432-1.378,0-.791.77-1.338,2.006-1.338,1.318,0,2.128.567,2.169,1.6h2.128c-.04-2.108-1.7-3.506-4.236-3.506-2.554,0-4.236,1.358-4.236,3.324,0,2.533,2.148,2.939,3.972,3.263,1.338.223,2.513.446,2.513,1.5,0,.912-.932,1.419-2.148,1.419-1.317,0-2.29-.608-2.351-1.763h-2.189C169.4,195.467,171.14,196.946,173.795,196.946Z" transform="translate(-94.744 -176.004)" fill="#fff"/>
      <path id="Path_12" data-name="Path 12" d="M130,174.1a1.1,1.1,0,1,0,1.1-1.1A1.1,1.1,0,0,0,130,174.1Z" transform="translate(-72.735 -169.036)" fill="#fff"/>
      <path id="Path_13" data-name="Path 13" d="M140.642,169.28v-4.943h-1.3V170.5h4.623V169.28Z" transform="translate(-77.962 -164.189)" fill="#fff"/>
      <path id="Path_14" data-name="Path 14" d="M152.445,170.5h1.267v-6.165h-1.267Z" transform="translate(-85.293 -164.189)" fill="#fff"/>
      <path id="Path_15" data-name="Path 15" d="M162.632,164.337l-1.8,4.578-1.85-4.578h-1.336l2.6,6.165H161.4l2.535-6.165Z" transform="translate(-88.202 -164.189)" fill="#fff"/>
      <path id="Path_16" data-name="Path 16" d="M179.185,167.254a3.057,3.057,0,1,0-.148,1.119H177.7a1.854,1.854,0,0,1-1.667.914,1.815,1.815,0,0,1-1.884-1.621h5A2.49,2.49,0,0,0,179.185,167.254Zm-3.151-2.1a1.833,1.833,0,0,1,1.873,1.484h-3.722A1.813,1.813,0,0,1,176.033,165.153Z" transform="translate(-96.722 -164)" fill="#fff"/>
    </g>
  </g>
</svg>
