<?xml version="1.0" encoding="utf-8"?>
<!-- Generator: Adobe Illustrator 19.0.0, SVG Export Plug-In . SVG Version: 6.00 Build 0)  -->
<svg version="1.1" id="layer" xmlns="http://www.w3.org/2000/svg" xmlns:xlink="http://www.w3.org/1999/xlink" x="0px" y="0px"
	 viewBox="-153 -46 652 652" style="enable-background:new -153 -46 652 652;" xml:space="preserve">
<style type="text/css">
	.st0{fill:#281143;}
	.st1{fill:#DF1668;}
	.st2{fill:#B2DEEB;}
	.st3{fill:#5C5A58;}
	.st4{fill:#010101;}
	.st5{fill:#B29975;}
	.st6{fill:#C9B79E;}
	.st7{fill:#967C64;}
	.st8{fill:none;}
	.st9{fill:#C8C6C7;}
	.st10{fill:#727170;}
	.st11{fill:#FFFFFF;}
	.st12{fill:#9C9B9B;}
	.st13{fill:#E9E4E3;}
	.st14{fill:#F8B232;}
	.st15{fill:#A32553;}
</style>
<g id="presta">
	<g id="_Gruppe_">
		<g id="_Gruppe_2">
			<path id="_Zusammengesetzter_Pfad_" class="st0" d="M90.3,287.9c-0.1-0.6-0.1-1.1-0.1-1.7c0-4.9,1.6-8.8,4.9-11.6
				c3-2.7,6.9-4.1,10.9-4.1c5.2,0,8.9,1.9,10.9,5.9L90.3,287.9z M128.4,280.8c0.1-5.5-2.3-10.7-6.6-14.2c-4.3-3.6-9.8-5.5-16.3-5.5
				c-4.1,0-8.2,0.9-11.8,2.8c-3.8,2-7.1,4.9-9.4,8.6c-2.6,4-3.9,8.7-3.8,13.5c0,7.4,2.4,13.3,7.3,17.8c4.7,4.4,11,6.9,17.5,6.8
				c7.8,0,14.5-3,20.2-8.9l-5.9-6.6c-3.2,4.1-8.1,6.4-13.3,6.3c-5.4,0-9.6-1.9-12.8-5.7l34.9-14.7L128.4,280.8z"/>
			<path id="_Pfad_" class="st0" d="M68.9,264.2c-2.8,1.9-5.1,4.5-6.7,7.4v-9.7H52.2v47.9h10.1v-20.5c0-5.5,1.3-9.8,3.8-13.1
				s6.2-4.9,11.2-4.9h0.5v-10.1C74.6,261.3,71.5,262.3,68.9,264.2"/>
			<path id="_Pfad_2" class="st0" d="M164.6,285.5c-1.4-1-3-1.8-4.6-2.5c-1.4-0.6-2.9-1.2-4.4-1.6c-1.5-0.5-3.2-0.9-5.1-1.4
				c-1.6-0.4-3.1-0.9-4.6-1.5c-1.5-0.5-2.4-1.9-2.4-3.5c-0.1-1.6,0.8-3.2,2.3-3.9c1.8-0.9,3.8-1.3,5.8-1.3c4.6,0,9,1.3,12.8,3.9
				l3.8-7.5c-4.6-3.2-10.1-4.9-15.7-4.9c-5.6,0-10,1.3-13.5,4.1c-3.4,2.5-5.3,6.5-5.1,10.7c0,6.3,5,10.8,14.9,13.5
				c0.2,0.1,0.6,0.2,1.1,0.3c6.3,1.9,9.5,4.1,9.5,6.5c0,1.6-0.7,3.1-1.9,4c-1.6,1.1-3.5,1.7-5.4,1.6c-5.2,0-10.6-2.1-16.2-6.3
				l-4.9,7.9c3,2.3,6.4,4.1,10,5.3c3.5,1.2,7.2,1.8,10.9,1.9c5.2,0,9.4-1.4,12.8-4.1c3.3-2.7,5.1-6.7,5-11
				C169.4,290.9,167.8,287.6,164.6,285.5"/>
			<path id="_Zusammengesetzter_Pfad_2" class="st0" d="M31,278.4c-2.1,2.3-6.2,3.4-12.1,3.4H6.6v-25.2h10.8c5.7,0,10,0.9,12.8,2.7
				c2.7,1.8,4.1,4.9,4.1,9.2C34.2,272.7,33.1,276.1,31,278.4 M38.5,252.4c-4.4-3.6-11.4-5.5-20.9-5.5H-4.1v63H6.6v-18.6h11.2
				c9.3,0,16.1-1.8,20.6-5.3c4.5-3.6,6.8-9.1,6.8-16.8C45.1,261.6,42.9,256,38.5,252.4"/>
			<path id="_Pfad_3" class="st0" d="M193,301.8c-1.9,0.1-3.8-0.6-5.1-2c-1.2-1.5-1.9-3.5-1.8-5.5V270h12.7v-8.1h-12.7v-15h-10.1
				v47.3c0,5.1,1.5,9,4.6,12.1c2.9,2.9,6.9,4.5,11,4.5c4.3,0,8.2-1.6,11.7-4.8l-4.1-7.1C197.3,300.8,195.2,301.8,193,301.8"/>
			<path id="_Zusammengesetzter_Pfad_3" class="st0" d="M239.3,297.2c-2.6,2.9-6.3,4.5-10.1,4.4c-3.9,0-7.6-1.5-10.4-4.3
				c-3-2.9-4.4-6.7-4.4-11.2c-0.1-4.2,1.4-8.4,4.3-11.5c2.6-2.9,6.4-4.6,10.4-4.6c3.9-0.1,7.6,1.6,10.2,4.6c2.8,3,4.1,6.9,4.1,11.5
				C243.5,290.2,242,294.2,239.3,297.2 M243.3,270.2c-4.1-6-9.3-9-15.6-9c-6.1-0.1-12.1,2.3-16.4,6.7c-4.6,4.5-6.9,10.4-6.9,17.8
				s2.3,13.5,6.8,18.1c4.1,4.4,9.9,6.9,15.9,6.8c3.1,0,6.2-0.8,9-2.2c2.9-1.5,5.5-3.6,7.3-6.3v7.9h10.1v-47.9h-10.2L243.3,270.2z"/>
			<path id="_Zusammengesetzter_Pfad_4" class="st1" d="M402.9,297.2c-6.1,5.9-15.7,5.9-21.8,0c-2.9-3-4.3-6.7-4.3-11.3
				s1.4-8.4,4.3-11.3c6.1-5.9,15.7-5.9,21.8,0c2.9,3,4.3,6.7,4.3,11.3C407.2,290.5,405.8,294.3,402.9,297.2 M392.1,261.2
				c-7.2,0-13.3,2.4-18.1,7.2c-9.6,9.7-9.6,25.4,0,35.1c4.8,4.8,10.8,7.2,18.1,7.2c7.3,0,13.2-2.4,18.1-7.2c9.6-9.7,9.6-25.4,0-35.1
				C405.3,263.6,399.3,261.2,392.1,261.2"/>
			<path id="_Zusammengesetzter_Pfad_5" class="st1" d="M457.8,297.2c-2.7,2.8-6.5,4.3-10.4,4.3c-3.9,0.1-7.5-1.5-10.1-4.4
				c-2.8-3-4.1-6.7-4.1-11.2s1.3-8.4,4.1-11.4c2.6-2.9,6.3-4.6,10.2-4.6c4,0,7.7,1.6,10.4,4.6c2.9,3.1,4.5,7.3,4.3,11.5
				C462.2,290.6,460.7,294.4,457.8,297.2 M465.5,267.9c-4.4-4.4-10.3-6.8-16.5-6.7c-6.4,0-11.6,3-15.6,9.1V262h-10.1v65.4h10.1
				v-24.7c4.8,5.3,10.2,7.9,16.3,7.9s11.3-2.3,15.9-6.9c4.6-4.6,6.8-10.6,6.8-18.1S470,272.3,465.5,267.9"/>
			<path id="_Pfad_4" class="st1" d="M343.3,261.2c-3.3,0-6.6,0.9-9.4,2.5c-2.8,1.6-5.1,4-6.5,6.9v-27.6h-10.1v66.8h10.1v-25.9
				c0-4.5,1.3-7.9,3.9-10.1c2.5-2.3,5.8-3.5,9.1-3.5c7.3,0,11,4.4,11,13.3v26.3h10.1v-29.5c0-6.2-1.7-11.1-5-14.4
				C353.2,262.8,348.7,261.2,343.3,261.2"/>
			<path id="_Pfad_5" class="st1" d="M305.2,279.5c-3.3-2.8-8.1-5-14.6-6.6c-6.5-1.6-10.7-3-12.7-4.4c-1.9-1.3-3-3.5-3-5.8
				c-0.1-2.3,1-4.5,3-5.7c2.3-1.3,4.9-2,7.6-1.9c3.2,0,6.4,0.5,9.4,1.6c2.8,0.9,5.4,2.3,7.6,4.1l5.7-8c-3-2.5-6.5-4.4-10.3-5.6
				c-3.9-1.3-7.9-2-12-1.9c-6.2,0-11.5,1.6-15.7,4.7c-4.2,3.1-6.3,7.7-6.3,13.5s1.9,10.1,5.6,13c1.9,1.5,4.1,2.8,6.4,3.6
				c3.4,1.2,7,2.3,10.6,3c4.6,1.1,7.8,2.4,9.8,3.7c1.9,1.3,2.9,3.4,2.9,5.7c0.1,2.3-1.1,4.5-3,5.8c-2,1.4-4.7,2.2-8.2,2.2
				c-6.8,0-13.4-2.8-19.8-8.3l-6.7,8c7.6,6.8,16.4,10.2,26.2,10.2c6.8,0,12.2-1.7,16.3-5.1c4-3.2,6.3-8.2,6.2-13.4
				C310.1,286.4,308.4,282.5,305.2,279.5"/>
		</g>
		<path id="_Pfad_6" class="st2" d="M-95.9,304.5c0.8-0.3,1.6-0.7,2.4-0.9c0.9-0.3,1.8-0.7,2.7-0.9c1.2-0.3,2.3-0.7,3.5-0.9
			c1.6-0.3,3.2-0.6,4.8-0.8c-0.9,2.9-1.9,5.7-3,8.5c0.1,0.5,0.1,1.1,0.1,1.6c4.5-0.9,9-0.9,13.5,0c0-0.5,0-1.1,0.1-1.6
			c-1.1-2.8-2.1-5.7-3-8.5c1.6,0.2,3.2,0.5,4.8,0.8c1.2,0.2,2.4,0.6,3.5,0.9c0.9,0.3,1.8,0.6,2.7,0.9c0.8,0.3,1.6,0.6,2.4,0.9
			c5.7,2.5,10.7,6.2,14.8,10.9c20.5-17.7,22.7-48.6,5.1-69.1s-48.6-22.7-69.1-5.1s-22.7,48.6-5.1,69.1c1.6,1.8,3.3,3.5,5.1,5.1
			C-106.5,310.8-101.5,307.1-95.9,304.5z"/>
		<path id="_Pfad_7" class="st3" d="M-92.6,313.4c2.3-1,4.8-1.8,7.3-2.3c0-0.5,0-1.1-0.1-1.6c1.1-2.8,2.1-5.7,3-8.5
			c-1.6,0.2-3.2,0.5-4.8,0.8c-1.2,0.2-2.4,0.6-3.5,0.9c-0.9,0.3-1.8,0.6-2.7,0.9l3.6,0.8L-92.6,313.4z"/>
		<path id="_Pfad_8" class="st3" d="M-101,318.7c0.1-0.9,0.2-1.9,0.2-2.8c0-0.5,0.4-1,0.9-1c0,0,0,0,0.1,0h0.9l3.1-10.4
			c-5.7,2.5-10.7,6.2-14.8,10.9c2.3,2,4.8,3.7,7.4,5.2C-102.5,319.9-101.8,319.3-101,318.7z"/>
		<path id="_Pfad_9" class="st3" d="M-61.4,304.5l3.1,10.4h0.9c0.5,0,1,0.4,1,0.9c0,0,0,0,0,0.1c0,0.9,0.1,1.9,0.2,2.8
			c0.8,0.7,1.5,1.4,2.2,2c2.6-1.5,5.1-3.3,7.4-5.2C-50.6,310.8-55.7,307.1-61.4,304.5z"/>
		<path id="_Pfad_10" class="st3" d="M-67.3,304.4l3.5-0.8c-0.9-0.3-1.8-0.7-2.7-0.9c-1.2-0.3-2.3-0.7-3.5-0.9
			c-1.6-0.3-3.2-0.6-4.8-0.8c0.9,2.9,1.9,5.7,3,8.5c-0.1,0.5-0.1,1.1-0.1,1.6c2.5,0.5,4.9,1.2,7.3,2.3L-67.3,304.4z"/>
		<path id="_Pfad_11" class="st4" d="M-78.7,314.9h6.9c-0.1-1.3-0.2-2.5-0.2-3.8c-4.5-0.9-9-0.9-13.5,0c0,1.3,0,2.5-0.2,3.8H-78.7z"
			/>
		<path id="_Pfad_12" class="st4" d="M-103.2,320.7c0.6,0.3,1.2,0.7,1.7,0.9c0.2-1,0.3-1.9,0.4-3
			C-101.9,319.3-102.6,320-103.2,320.7z"/>
		<path id="_Pfad_13" class="st4" d="M-93.1,314.9h7.6c0.1-1.3,0.2-2.5,0.2-3.8c-2.5,0.5-4.9,1.2-7.3,2.3L-93.1,314.9z"/>
		<path id="_Pfad_14" class="st4" d="M-56.2,318.7c0.1,1,0.2,2,0.4,3c0.6-0.3,1.2-0.6,1.7-0.9C-54.7,320-55.4,319.3-56.2,318.7z"/>
		<path id="_Pfad_15" class="st4" d="M-64.1,314.9l-0.4-1.5c-2.3-1-4.8-1.8-7.3-2.3c0,1.3,0,2.5,0.2,3.8H-64.1z"/>
		<path id="_Pfad_16" class="st5" d="M-93.1,314.9l0.4-1.5l2.7-9l-3.5-0.8c-0.8,0.3-1.6,0.6-2.4,0.9l-3.1,10.4L-93.1,314.9
			L-93.1,314.9z"/>
		<path id="_Pfad_17" class="st5" d="M-64.7,313.4l0.4,1.5h5.9l-3.1-10.4c-0.8-0.3-1.6-0.7-2.4-0.9l-3.5,0.8L-64.7,313.4z"/>
		<path id="_Pfad_18" class="st6" d="M-98.9,317L-98.9,317L-98.9,317z"/>
		<path id="_Pfad_19" class="st6" d="M-78.7,316.9h-20.1l-0.1,0.1c-0.1,1.9-0.4,3.8-0.8,5.7c6.6,3.1,13.7,4.7,21,4.7L-78.7,316.9
			L-78.7,316.9z"/>
		<path id="_Pfad_20" class="st5" d="M-58.3,316.9L-58.3,316.9C-58.4,316.9-58.4,317-58.3,316.9z"/>
		<path id="_Pfad_21" class="st5" d="M-58.4,316.9h-20.1v10.4c7.3,0,14.5-1.6,21-4.7c-0.4-1.9-0.7-3.8-0.8-5.7
			C-58.4,317-58.4,316.9-58.4,316.9z"/>
		<path id="_Pfad_22" class="st7" d="M-56.2,318.7c-0.1-0.9-0.2-1.9-0.2-2.8c0-0.5-0.4-1-0.9-1c0,0-0.1,0-0.1,0h-42.7
			c-0.5,0-1,0.4-1,0.9c0,0,0,0,0,0.1c0,0.9-0.1,1.9-0.2,2.8c-0.1,0.9-0.3,2-0.4,3c0.6,0.3,1.2,0.6,1.9,0.9c0.4-1.9,0.7-3.8,0.8-5.7
			v-0.1h40.3v0.1c0.1,1.9,0.3,3.8,0.8,5.7c0.6-0.3,1.3-0.6,1.9-0.9C-56,320.7-56.1,319.7-56.2,318.7z"/>
		<g id="_Gruppe_3">
			<path id="_Pfad_23" class="st8" d="M-62.1,270.9L-62.1,270.9c0.7,1.8,1.3,3.6,1.7,5.4v0.4c0,0.2-0.1,0.3-0.1,0.5
				c0.1-0.2,0.1-0.5,0.2-0.8C-60.9,274.5-61.4,272.7-62.1,270.9z"/>
			<path id="_Pfad_24" class="st8" d="M-47.5,281.7L-47.5,281.7L-47.5,281.7z"/>
			<path id="_Pfad_25" class="st8" d="M-63.7,269.6c-1.1-1-2.3-1.8-3.5-2.6l0,0C-66,267.8-64.8,268.7-63.7,269.6z"/>
			<path id="_Pfad_26" class="st8" d="M-50.1,283.9L-50.1,283.9C-50.1,284-50.1,284-50.1,283.9z"/>
			<path id="_Pfad_27" class="st8" d="M-60.6,277.3c0,0.2-0.1,0.3-0.1,0.4C-60.7,277.6-60.7,277.4-60.6,277.3z"/>
			<path id="_Pfad_28" class="st8" d="M-65.4,295.2c-0.7,1.1-1.2,2.3-1.5,3.5C-66.6,297.5-66.1,296.3-65.4,295.2
				c0.2-0.4,0.5-0.8,0.8-1.2C-64.9,294.4-65.2,294.8-65.4,295.2z"/>
			<path id="_Pfad_29" class="st8" d="M-62.1,270.9c0.1-0.1,0.1-0.2,0.2-0.3l0,0C-62,270.7-62.1,270.8-62.1,270.9
				c0.3,0.3,0.6,0.5,0.8,0.8C-61.5,271.4-61.9,271.2-62.1,270.9z"/>
			<path id="_Pfad_30" class="st8" d="M-68.9,266c-0.1,0-0.1-0.1-0.2-0.1C-69,266-69,266-68.9,266z"/>
			<path id="_Pfad_31" class="st8" d="M-68.6,266.2c0,0-0.1-0.1-0.2-0.1C-68.7,266.1-68.7,266.2-68.6,266.2z"/>
			<path id="_Pfad_32" class="st8" d="M-48.2,286.6c0.1,0.1,0.1,0.2,0.2,0.3C-48,286.7-48.1,286.6-48.2,286.6z"/>
			<path id="_Pfad_33" class="st8" d="M-67,271.7c0,0.5,0,1-0.1,1.5C-67.1,272.7-67.1,272.2-67,271.7z"/>
			<path id="_Pfad_34" class="st8" d="M-67.3,267c-0.2-0.1-0.7-0.3-1.1-0.6C-68,266.6-67.5,266.9-67.3,267z"/>
			<path id="_Pfad_35" class="st8" d="M-68.4,266.4c-0.1-0.1-0.2-0.1-0.3-0.2C-68.6,266.2-68.5,266.3-68.4,266.4z"/>
			<path id="_Pfad_36" class="st8" d="M-54.6,278.6l0.2,0.2l0,0C-54.5,278.8-54.5,278.7-54.6,278.6z"/>
			<path id="_Pfad_37" class="st8" d="M-61.3,271.7c0.7,0.6,1.3,1.2,1.9,1.9C-60,272.9-60.6,272.3-61.3,271.7z"/>
			<path id="_Pfad_38" class="st8" d="M-48.5,275.4c0.1,0,0.2,0,0.3,0.1C-48.3,275.5-48.4,275.4-48.5,275.4z"/>
			<path id="_Pfad_39" class="st8" d="M-48,275.5c0.1,0,0.2,0.1,0.3,0.1C-47.9,275.6-48,275.6-48,275.5z"/>
			<path id="_Pfad_40" class="st8" d="M-47.3,276.2L-47.3,276.2C-47.3,276.3-47.3,276.2-47.3,276.2z"/>
			<path id="_Pfad_41" class="st8" d="M-49.8,276.3L-49.8,276.3L-49.8,276.3z"/>
			<path id="_Pfad_42" class="st8" d="M-48.9,275.5c0.1,0,0.2-0.1,0.3-0.1C-48.6,275.4-48.7,275.5-48.9,275.5z"/>
			<path id="_Pfad_43" class="st8" d="M-57.6,275.3l-0.9-0.9C-58.2,274.7-57.9,275-57.6,275.3z"/>
			<path id="_Pfad_44" class="st8" d="M-48.5,264.7L-48.5,264.7v4.6l-1.8,8l0,0l0,0l1.8-8V264.7z"/>
			<path id="_Pfad_45" class="st8" d="M-56,277.1l-0.5-0.5C-56.3,276.7-56.1,276.9-56,277.1z"/>
			<path id="_Pfad_46" class="st8" d="M-46.8,277.3c0,0.1,0.1,0.1,0.1,0.2l0,0C-46.7,277.4-46.8,277.4-46.8,277.3z"/>
			<path id="_Pfad_47" class="st8" d="M-49.2,275.7c0.1-0.1,0.2-0.1,0.3-0.1C-49.1,275.6-49.2,275.6-49.2,275.7z"/>
			<path id="_Pfad_48" class="st8" d="M-49.6,275.9l0.3-0.3L-49.6,275.9z"/>
			<path id="_Pfad_49" class="st8" d="M-46.7,280.1L-46.7,280.1c-0.1,0.2-0.1,0.3-0.2,0.5C-46.8,280.5-46.8,280.3-46.7,280.1z"/>
			<path id="_Pfad_50" class="st8" d="M-106.4,277.3c0.1-0.1,0.2-0.2,0.2-0.3C-106.2,277.1-106.3,277.2-106.4,277.3z"/>
			<path id="_Pfad_51" class="st8" d="M-47.7,275.7l0.3,0.3C-47.5,275.8-47.6,275.7-47.7,275.7z"/>
			<path id="_Pfad_52" class="st8" d="M-105,275.2c0-0.1,0.1-0.1,0.1-0.2C-104.9,275.1-105,275.2-105,275.2z"/>
			<path id="_Pfad_53" class="st8" d="M-108.6,281.3l-0.3,0.5L-108.6,281.3z"/>
			<path id="_Pfad_54" class="st8" d="M-101.9,271.5l0.2-0.2C-101.6,271.4-101.7,271.4-101.9,271.5z"/>
			<path id="_Pfad_55" class="st8" d="M-103.6,273.5c0.1-0.1,0.2-0.2,0.3-0.3C-103.4,273.2-103.5,273.3-103.6,273.5z"/>
			<path id="_Pfad_56" class="st8" d="M-46.8,277.3l-1.8-8L-46.8,277.3z"/>
			<path id="_Pfad_57" class="st8" d="M-77.2,283.3L-77.2,283.3C-77.2,283.3-77.2,283.3-77.2,283.3z"/>
			<path id="_Pfad_58" class="st8" d="M-76.7,283.4L-76.7,283.4C-76.8,283.3-76.7,283.3-76.7,283.4z"/>
			<path id="_Pfad_59" class="st8" d="M-107.5,279.1c-0.1,0.2-0.3,0.4-0.3,0.6C-107.7,279.5-107.6,279.3-107.5,279.1z"/>
			<path id="_Pfad_60" class="st8" d="M-80.7,277.8L-80.7,277.8C-80.8,277.8-80.7,277.8-80.7,277.8z"/>
			<path id="_Pfad_61" class="st8" d="M-47.2,281.3c-0.1,0.1-0.1,0.2-0.2,0.2C-47.3,281.4-47.2,281.3-47.2,281.3z"/>
			<path id="_Pfad_62" class="st8" d="M-80.8,278.2L-80.8,278.2C-80.9,278.3-80.8,278.3-80.8,278.2z"/>
			<path id="_Pfad_63" class="st8" d="M-46.9,280.8c-0.1,0.1-0.1,0.2-0.2,0.3C-47,281-46.9,280.9-46.9,280.8z"/>
			<path id="_Pfad_64" class="st3" d="M-64.6,307.9c-0.2-0.2-0.3-0.4-0.4-0.6C-64.9,307.5-64.8,307.8-64.6,307.9z"/>
			<path id="_Pfad_65" class="st5" d="M-63.5,309L-63.5,309c-0.4-0.3-0.8-0.7-1.1-1.1l0,0C-64.3,308.3-63.9,308.7-63.5,309z"/>
			<path id="_Pfad_66" class="st9" d="M-46,267.5L-46,267.5c-0.4-0.6-0.8-1.1-1.3-1.6l0,0c-0.2-0.2-0.4-0.4-0.6-0.6
				c-0.1-0.1-0.2-0.2-0.3-0.2l-0.3-0.3l0,0v4.5l1.8,8l0,0c0,0.1,0,0.1,0.1,0.2l1.2,1.3h1.2v-0.3l0,0c0-3.7-0.6-7.3-1.7-10.8l0,0
				C-46,267.6-46,267.6-46,267.5z"/>
			<path id="_Pfad_67" class="st10" d="M-46.6,278L-46.6,278c0,0.2,0.1,0.4,0.1,0.7v0.1l0,0v0.7l0,0v0.1c0,0.2-0.1,0.4-0.1,0.6l0,0
				l1.2-1.3l-1.2-1.3l0,0C-46.7,277.6-46.6,277.9-46.6,278z"/>
			<path id="_Zusammengesetzter_Pfad_6" class="st4" d="M-46.6,279.5L-46.6,279.5c0-0.3,0.1-0.4,0.1-0.7v-0.9c0-0.2-0.1-0.4-0.1-0.6
				c0-0.2,0-0.1-0.1-0.2c-0.1-0.4-0.2-0.7-0.4-1l-0.1-0.1c-0.1-0.1-0.1-0.2-0.2-0.2l-0.3-0.3l-0.1-0.1c-0.1-0.1-0.2-0.1-0.3-0.1H-48
				c-0.1,0-0.2-0.1-0.3-0.1c-0.1,0-0.2,0-0.3,0.1h-0.1c-0.1,0-0.2,0.1-0.2,0.1s-0.1,0-0.1,0.1l-0.3,0.3c-0.1,0.1-0.1,0.2-0.2,0.2
				l-0.1,0.1c-0.2,0.3-0.4,0.6-0.4,1v0.1c-0.1,0.2-0.1,0.4-0.1,0.6v0.2c0,0.2-0.1,0.4-0.1,0.7v0.1l0,0c0,1.9,0.8,3.4,1.9,3.4
				c0.2,0,0.3-0.1,0.5-0.2c0,0,0.1,0,0.1-0.1l0,0c0.1,0,0.2-0.1,0.2-0.2l0.1-0.1l0.2-0.2c0.1-0.1,0.1-0.2,0.2-0.3
				c0.1-0.1,0.1-0.1,0.1-0.2c0-0.1,0.1-0.2,0.2-0.3c0,0,0-0.1,0.1-0.1c0,0,0,0,0,0c0.1-0.2,0.1-0.3,0.2-0.5
				C-46.7,280-46.6,279.8-46.6,279.5z M-48.4,278.4c-0.4,0-0.8-0.6-0.8-1.3c0-0.7,0.3-1.3,0.8-1.3c0.5,0,0.8,0.6,0.8,1.3
				S-48,278.4-48.4,278.4L-48.4,278.4z"/>
			<ellipse id="_Pfad_68" class="st11" cx="-48.5" cy="277.1" rx="0.8" ry="1.3"/>
			<path id="_Pfad_69" class="st12" d="M-50.2,277.3L-50.2,277.3c0.1-0.4,0.2-0.7,0.4-1l0.1-0.1c0.1-0.1,0.1-0.2,0.2-0.2l0.3-0.3
				l0.1-0.1c0.1-0.1,0.2-0.1,0.3-0.1h0.1c0.1,0,0.2-0.1,0.3-0.1c0.1,0,0.2,0,0.3,0.1h0.1c0.1,0,0.2,0.1,0.3,0.1c0,0,0.1,0,0.1,0.1
				c0,0,0,0,0,0l0.3,0.3c0.1,0.1,0.1,0.2,0.2,0.2l0.1,0.1c0.2,0.3,0.3,0.6,0.4,1l0,0l-1.8-8L-50.2,277.3L-50.2,277.3z"/>
			<path id="_Zusammengesetzter_Pfad_7" class="st4" d="M-71.7,278.7v-0.5l0,0c0-0.1,0-0.3-0.1-0.4l0,0c0-0.2-0.1-0.3-0.1-0.4l0,0
				c-0.1-0.2-0.1-0.3-0.2-0.4l0,0c-0.1-0.1-0.2-0.3-0.2-0.4l0,0c-0.2-0.4-0.5-0.8-0.8-1.1c-0.4-0.4-0.9-0.7-1.4-0.9l0,0
				c-0.3-0.1-0.5-0.2-0.8-0.2l0,0c-0.3-0.1-0.6-0.1-0.8-0.1c-0.3,0-0.6,0-0.8,0.1l0,0l-0.8,0.2l0,0c-0.3,0.1-0.6,0.2-0.8,0.4l0,0
				c-0.3,0.2-0.4,0.3-0.7,0.5l0,0c-0.3,0.3-0.6,0.7-0.8,1.1l0,0c-0.1,0.1-0.1,0.2-0.2,0.3l0,0c-0.1,0.1-0.1,0.2-0.2,0.3v0.1
				c0,0.1-0.1,0.3-0.1,0.3v0.1c0,0.1,0,0.2-0.1,0.3v0.6c0,0.3,0,0.6,0.1,0.9l0,0c0.1,0.3,0.2,0.6,0.2,0.8l0,0c0.2,0.5,0.5,1,0.9,1.4
				c0.3,0.3,0.7,0.6,1.1,0.8l0,0c0.1,0.1,0.3,0.2,0.4,0.2l0,0c0.1,0.1,0.3,0.1,0.3,0.2h0.1c0.1,0,0.3,0.1,0.3,0.1h0.1
				c0.1,0,0.2,0,0.3,0.1h0.6c0.6,0,1.2-0.1,1.8-0.3c0.3-0.1,0.6-0.2,0.8-0.4c0.5-0.3,0.9-0.8,1.3-1.3c0.2-0.2,0.3-0.5,0.4-0.8
				C-71.7,279.8-71.6,279.2-71.7,278.7L-71.7,278.7z M-76.2,278.2c-1,0-1.8-0.8-1.8-1.8s0.8-1.8,1.8-1.8s1.8,0.8,1.8,1.8
				C-74.5,277.4-75.3,278.2-76.2,278.2z"/>
			<circle id="_Pfad_70" class="st11" cx="-76.2" cy="276.4" r="1.8"/>
			<path id="_Pfad_71" class="st9" d="M-79.4,275.5L-79.4,275.5l3.2-9.7v-2.3l0,0c-1.8-0.4-3.6-0.6-5.5-0.6c-0.6,0-1.2,0-1.9,0.1
				h-0.3c-3.2,0.3-6.3,1.1-9.3,2.4c-2.5,1.1-4.8,2.6-6.9,4.4l0,0c-0.6,0.5-1.1,1-1.6,1.5l-0.2,0.2c-0.5,0.5-0.9,1-1.4,1.5
				c-0.1,0.1-0.2,0.2-0.3,0.3c-0.4,0.5-0.9,1.1-1.4,1.7c0,0.1-0.1,0.1-0.1,0.2c-0.4,0.6-0.8,1.1-1.2,1.7c-0.1,0.1-0.2,0.3-0.3,0.3
				c-0.3,0.5-0.6,1-0.8,1.4h14.4L-79.4,275.5z"/>
			<path id="_Pfad_72" class="st13" d="M-67.2,274.4c0-0.3,0.1-0.8,0.1-1.1c0-0.5,0.1-1,0.1-1.5v-1.5c0-1-0.1-2-0.1-3.1h-0.1
				c-0.2-0.1-0.7-0.3-1.1-0.6l0,0c-0.1-0.1-0.2-0.1-0.3-0.2l0,0c0,0-0.1-0.1-0.2-0.1l0,0c-0.1,0-0.1-0.1-0.2-0.1
				c-0.7-0.3-1.3-0.7-2-0.9c-1.7-0.6-3.4-1.2-5.1-1.6v2.3l3.1,9.7l0,0c0.3,0.3,0.6,0.7,0.8,1.1l0,0c0.1,0.2,0.2,0.3,0.2,0.4l0,0
				c0.1,0.2,0.1,0.3,0.2,0.4l0,0c0.1,0.1,0.1,0.3,0.1,0.4l0,0c0,0.1,0,0.3,0.1,0.4l0,0v0.5h3.9c0.2-1.4,0.4-2.9,0.6-4.3V274.4z"/>
			<path id="_Pfad_73" class="st14" d="M-71.6,292.6l2.5-2.5c0.5-0.5,0.9-0.9,1.3-1.4c3.2-3.5,5.6-6.8,7-11c0-0.1,0.1-0.3,0.1-0.4
				v-0.1c0-0.2,0.1-0.3,0.1-0.5v-0.4c-0.4-1.8-1-3.7-1.7-5.4l0,0l-0.3-0.3c-0.3-0.3-0.8-0.7-1.1-1c-1.1-1-2.3-1.8-3.5-2.6l0,0
				c0.1,1,0.1,2,0.1,3.1v1.5c0,0.5,0,1-0.1,1.5c0,0.3-0.1,0.8-0.1,1.1v0.1c-0.1,1.4-0.3,2.9-0.6,4.3l-0.3,2.4
				c-0.9,3.8-2.9,7.3-4.5,10.9c-0.4,0.9-0.8,1.9-1.2,2.9c0,0.1-0.1,0.2-0.1,0.3l1.3-1.3C-72.4,293.3-71.9,293-71.6,292.6z"/>
			<path id="_Pfad_74" class="st12" d="M-79.4,275.4L-79.4,275.4c0.2-0.2,0.4-0.4,0.7-0.5l0,0c0.2-0.2,0.5-0.2,0.8-0.4l0,0
				c0.3-0.1,0.5-0.2,0.8-0.2l0,0c0.3-0.1,0.5-0.1,0.8-0.1c0.3,0,0.6,0,0.8,0.1l0,0l0.8,0.2l0,0c0.5,0.2,1,0.5,1.4,0.9l0,0l-3.1-9.7
				L-79.4,275.4z"/>
			<path id="_Pfad_75" class="st10" d="M-80.5,280.6c-0.1-0.3-0.2-0.6-0.3-0.8l0,0c-0.1-0.3-0.1-0.6-0.1-0.9v-0.6
				c0-0.1,0-0.2,0.1-0.3v-0.1c0-0.1,0.1-0.3,0.1-0.3v-0.1c0-0.1,0.1-0.2,0.2-0.3l0,0c0.1-0.2,0.1-0.3,0.2-0.3l0,0
				c0.2-0.4,0.5-0.8,0.8-1.1l0,0l-13.3,3.3l0,0l13.3,3.2C-80,281.6-80.3,281.1-80.5,280.6L-80.5,280.6z"/>
			<path id="_Pfad_76" class="st13" d="M-50.4,278v-0.2c0-0.2,0.1-0.3,0.1-0.6v-0.1l1.8-8v-4.6c-1.3-1.1-2.9-1.8-4.6-1.9
				c-2,0.1-3.9,1-5.3,2.4c-1.5,1.6-2.8,3.4-3.7,5.3c-0.1,0.1-0.1,0.2-0.2,0.3c0.3,0.3,0.6,0.5,0.8,0.8c0.7,0.6,1.3,1.2,1.9,1.9
				l0.8,0.8l0.9,0.9c0.4,0.4,0.8,0.8,1.2,1.3l0.5,0.5c0.4,0.5,0.9,1,1.3,1.5l0,0l0.2,0.2h4.1v-0.1C-50.5,278.4-50.5,278.2-50.4,278z
				"/>
			<path id="_Pfad_77" class="st3" d="M-109.6,283.8L-109.6,283.8c0.2-0.8,0.5-1.4,0.8-2l0.3-0.5l0.8-1.5c0.1-0.2,0.2-0.4,0.3-0.6
				c0.1-0.1,0.1-0.2,0.2-0.3c0.3-0.5,0.6-1,0.8-1.4c0.1-0.1,0.2-0.3,0.2-0.3c0.4-0.6,0.7-1.2,1.2-1.7c0-0.1,0.1-0.1,0.1-0.2
				c0.4-0.6,0.8-1.1,1.3-1.7c0.1-0.1,0.2-0.2,0.3-0.3c0.4-0.5,0.9-1,1.4-1.5l0.3-0.3c0.5-0.5,1.1-1,1.6-1.5l0,0
				c2.2-7.5,9.1-12.7,16.9-12.8c3.2,0,6.4,0.9,9.1,2.7c2.8,1.7,5.1,4.2,6.6,7.2v0.1c0,0.1,0.1,0.2,0.1,0.3l0,0
				c1.3,0.7,2.5,1.6,3.5,2.6c0.3,0.3,0.8,0.7,1.1,1l0.3,0.3l0,0c0-0.1,0.1-0.2,0.1-0.3c1.1-7.1,4.2-12.2,7.9-12.2
				c2.8,0,5.2,2.9,6.8,7.3v0.1l0,0l1.3,1.5l0,0c0,0.1,0,0.2,0.1,0.2l0,0l-0.1-0.2c-4.7-14-17.8-23.4-32.6-23.4
				c-18.7-0.2-34.1,15.2-34.1,34.2c0,3.6,0.6,7.2,1.7,10.7l0,0l0.8-3C-110.2,285.3-109.9,284.5-109.6,283.8z"/>
			<path id="_Pfad_78" class="st11" d="M-45.5,278.8l-1.2,1.3l0,0c-0.1,0.2-0.1,0.3-0.2,0.5c0,0,0,0.1-0.1,0.1l0,0
				c-0.1,0.1-0.1,0.3-0.2,0.3s-0.1,0.1-0.1,0.2c0,0.1-0.1,0.2-0.2,0.2l-0.3,0.3l-0.1,0.1c-0.1,0.1-0.2,0.1-0.2,0.2
				c0,0.1-0.1,0-0.1,0.1c-0.2,0.1-0.3,0.2-0.5,0.2c-1.1,0-1.9-1.5-1.9-3.4h-4c0.8,0.8,1.4,1.7,2.2,2.6l0,0l2,2.5l0.1,0.1
				c0.7,0.8,1.3,1.6,1.9,2.4c0.1,0.1,0.1,0.2,0.2,0.3c0.7,0.8,1.3,1.8,1.9,2.6l0,0c1.1-3.4,1.7-7,1.8-10.6L-45.5,278.8L-45.5,278.8z
				"/>
			<path id="_Pfad_79" class="st4" d="M-83.8,262.9h0.3c0.6,0,1.3-0.1,1.9-0.1c1.8,0,3.7,0.2,5.5,0.6l0,0v-0.1
				c1.8,0.4,3.5,0.9,5.1,1.6c0.7,0.3,1.4,0.6,2,0.9c0,0,0.1,0.1,0.2,0.1l0,0c0.1,0,0.1,0,0.2,0.1l0,0c0.1,0.1,0.2,0.1,0.3,0.2l0,0
				c0.4,0.3,0.9,0.5,1.1,0.6h0.1c0-0.1-0.1-0.2-0.1-0.3v-0.1c-1.6-2.8-3.9-5.1-6.6-6.8c-2.7-1.7-5.9-2.6-9.1-2.6
				c-7.8,0.1-14.7,5.3-16.9,12.8c2.1-1.8,4.4-3.3,6.9-4.4C-90.1,264-87,263.2-83.8,262.9z"/>
			<path id="_Pfad_80" class="st4" d="M-58.3,265.4c1.4-1.5,3.3-2.3,5.3-2.4c1.7,0.1,3.3,0.7,4.6,1.9l0,0c0.2,0.1,0.2,0.3,0.3,0.3
				c0.1,0.1,0.2,0.2,0.3,0.2l0.6,0.6l0,0v-0.1c-1.5-4.5-4-7.3-6.8-7.3c-3.7,0-6.8,5.1-7.9,12.2l0,0C-61,268.7-59.8,266.9-58.3,265.4
				z"/>
			<path id="_Pfad_81" class="st11" d="M-90.9,310.4c0.3,0.1,0.6,0.3,0.9,0.3c3.6,1.3,7.5,2,11.3,1.9c4.4,0,8.7-0.9,12.8-2.4
				c0.2-0.1,0.4-0.2,0.6-0.3c0.3-0.2,0.7-0.3,1-0.4c0.3-0.1,0.6-0.3,0.8-0.4h-0.3c-1.2,0.2-2.4,0.2-3.6,0c-7.1-1-8.6-4.4-8.4-7.9
				c-0.5-0.3-1-0.6-1.5-1c-3.2-2.4-6.1-5.1-8.7-8.2c3.2,2.3,6.8,4.2,10.5,5.7c0.2,0.1,0.3,0.1,0.4,0.2c0.3-1,0.7-1.9,0.9-2.8l0,0
				c0-0.1,0.1-0.2,0.1-0.3c0.3-1,0.7-1.9,1.2-2.9c1.6-3.6,3.5-7.1,4.5-10.9l0.4-2.1h-3.6c0,0.6-0.1,1.2-0.3,1.8
				c-0.1,0.3-0.2,0.5-0.4,0.8c-0.3,0.5-0.8,0.9-1.3,1.3c-0.2,0.2-0.5,0.3-0.8,0.4c-0.6,0.2-1.2,0.3-1.8,0.3h-0.6
				c-0.1,0-0.2,0-0.3-0.1h-0.1c-0.1,0-0.3-0.1-0.3-0.1h-0.1c-0.1-0.1-0.3-0.1-0.3-0.2l0,0c-0.2-0.1-0.2-0.1-0.4-0.2l0,0
				c-0.4-0.2-0.8-0.5-1.1-0.8l-13.2-3.2h-14.6c-0.1,0.1-0.1,0.2-0.2,0.3c-0.1,0.2-0.3,0.4-0.3,0.6l-0.8,1.5l-0.3,0.5
				c-0.2,0.7-0.6,1.3-0.8,1.9v0.1c-0.3,0.7-0.6,1.5-0.8,2.3c-0.3,1-0.6,2-0.8,3c2.3,6.9,6.6,12.9,12.5,17.1c0.2,0.1,0.3,0.3,0.5,0.3
				c1,0.7,2,1.3,3,1.9C-93.8,309.3-92.3,309.9-90.9,310.4z"/>
			<path id="_Pfad_82" class="st15" d="M-67.1,299.8c-0.1,0.4-0.1,0.7-0.1,1.1c0,0.6,0,1.2,0.1,1.8c0.1,0.4,0.2,0.8,0.3,1.1
				c0.2,0.5,0.3,1,0.5,1.4c0.2,0.4,0.4,0.9,0.7,1.3c0.1,0.1,0.2,0.3,0.3,0.3s0.2,0.3,0.3,0.5c0.2,0.2,0.3,0.4,0.4,0.6
				c0.3,0.4,0.7,0.8,1.1,1.1l0,0v0.1h0.2c1.6-0.2,3.1-0.6,4.6-1.2c0.8-0.3,1.5-0.6,2.3-0.9c0.3-0.1,0.4-0.2,0.7-0.3
				c7.9-3.8,14.4-10.6,14.4-10.6C-51.1,301.1-60.7,300.8-67.1,299.8z"/>
			<path id="_Pfad_83" class="st1" d="M-48.2,286.6c-0.6-0.8-1.3-1.6-1.9-2.4l-0.1-0.1l-2-2.5l0,0c-0.7-0.8-1.4-1.7-2.2-2.6
				l-0.2-0.2c-0.4-0.5-0.9-1-1.4-1.5l-0.5-0.5c-0.4-0.4-0.8-0.8-1.2-1.3l-0.9-0.9l-0.8-0.8c-0.6-0.6-1.3-1.3-1.9-1.9
				c-0.2-0.3-0.6-0.5-0.8-0.8l0,0c0.7,1.8,1.3,3.6,1.7,5.5c0.1,0.5,0.2,0.9,0.3,1.4c0.8,6.4-1.2,10.6-4.5,16.2
				c-0.2,0.4-0.5,0.8-0.8,1.2c-0.7,1.1-1.2,2.3-1.5,3.5c-0.1,0.3-0.2,0.8-0.3,1.1c6.4,1,16.1,1.3,26-3.6c0,0-1.9-2.9-4.9-6.8
				c-0.7-0.8-1.3-1.8-1.9-2.6C-48,286.7-48.1,286.6-48.2,286.6z"/>
			<path id="_Pfad_84" class="st4" d="M-63.5,309c-0.4-0.3-0.8-0.7-1.1-1.1c-0.2-0.2-0.3-0.4-0.4-0.6c-0.1-0.2-0.3-0.3-0.3-0.5
				s-0.2-0.3-0.2-0.3c-0.3-0.4-0.5-0.8-0.7-1.3c-0.2-0.5-0.4-0.9-0.5-1.4c-0.1-0.3-0.2-0.7-0.3-1.1c-0.1-0.6-0.1-1.2-0.1-1.8
				c0-0.3,0.1-0.7,0.1-1.1c0-0.4,0.1-0.7,0.3-1.1c0.3-1.3,0.8-2.5,1.5-3.5l0,0c0.3-0.4,0.5-0.8,0.7-1.2c3.3-5.6,5.3-9.7,4.5-16.2
				c-0.1-0.4-0.2-0.9-0.3-1.4c-0.1,0.3-0.1,0.6-0.2,0.8v0.1c0,0.2-0.1,0.3-0.1,0.4c-1.4,4.2-3.8,7.5-7,11c-0.4,0.5-0.9,0.9-1.3,1.4
				c-0.8,0.9-1.6,1.7-2.5,2.5l-1.1,1.1l-1.3,1.3l0,0c-0.4,0.9-0.7,1.8-0.9,2.8c-0.2-0.1-0.3-0.1-0.4-0.2c-3.7-1.4-7.2-3.3-10.5-5.7
				c2.5,3.1,5.4,5.9,8.7,8.2c0.5,0.4,1,0.7,1.5,1c-0.3,3.5,1.3,6.9,8.4,7.9C-65.8,309.3-64.6,309.3-63.5,309
				C-63.5,309.1-63.5,309.1-63.5,309z"/>
		</g>
	</g>
</g>
</svg>
